<svg width="128" height="128" viewBox="0 0 128 128" fill="none" xmlns="http://www.w3.org/2000/svg">
<path fill-rule="evenodd" clip-rule="evenodd" d="M64.3311 5.38989C65.4356 5.38989 66.3311 6.28532 66.3311 7.38989V17.1499H70.4312V11.1799C70.4312 10.0754 71.3266 9.17993 72.4312 9.17993C73.5357 9.17993 74.4312 10.0754 74.4312 11.1799V17.1499H78.0411C79.1457 17.1499 80.0411 18.0453 80.0411 19.1499V23.0601H86.0013C87.1058 23.0601 88.0013 23.9555 88.0013 25.0601C88.0013 26.1646 87.1058 27.0601 86.0013 27.0601H80.0411V30.8599H89.7913C90.8958 30.8599 91.7913 31.7553 91.7913 32.8599C91.7913 33.9644 90.8958 34.8599 89.7913 34.8599H80.0411V38.96H86.0013C87.1058 38.96 88.0013 39.8554 88.0013 40.96C88.0013 42.0645 87.1058 42.96 86.0013 42.96H80.0411V46.5699C80.0411 47.6745 79.1457 48.5699 78.0411 48.5699H74.1211V54.5301C74.1211 55.6346 73.2257 56.5301 72.1211 56.5301C71.0165 56.5301 70.1211 55.6346 70.1211 54.5301V48.5699H66.3311V58.3201C66.3311 59.4246 65.4356 60.3201 64.3311 60.3201C63.2265 60.3201 62.3311 59.4246 62.3311 58.3201V48.5699H58.2212V54.5301C58.2212 55.6346 57.3258 56.5301 56.2212 56.5301C55.1166 56.5301 54.2212 55.6346 54.2212 54.5301V48.5699H50.6211C49.5165 48.5699 48.6211 47.6745 48.6211 46.5699V42.6499H42.6509C41.5463 42.6499 40.6509 41.7545 40.6509 40.6499C40.6509 39.5453 41.5463 38.6499 42.6509 38.6499H48.6211V34.8599H38.8608C37.7563 34.8599 36.8608 33.9644 36.8608 32.8599C36.8608 31.7553 37.7563 30.8599 38.8608 30.8599H48.6211V26.75H42.6509C41.5463 26.75 40.6509 25.8546 40.6509 24.75C40.6509 23.6454 41.5463 22.75 42.6509 22.75H48.6211V19.1499C48.6211 18.0453 49.5165 17.1499 50.6211 17.1499H54.5313V11.1799C54.5313 10.0754 55.4267 9.17993 56.5313 9.17993C57.6358 9.17993 58.5313 10.0754 58.5313 11.1799V17.1499H62.3311V7.38989C62.3311 6.28532 63.2265 5.38989 64.3311 5.38989ZM56.5203 21.1499C56.5239 21.1499 56.5276 21.1499 56.5313 21.1499C56.5349 21.1499 56.5386 21.1499 56.5422 21.1499H72.4202C72.4238 21.1499 72.4275 21.1499 72.4312 21.1499C72.4348 21.1499 72.4385 21.1499 72.4421 21.1499H76.0411V24.8604C76.0346 24.9261 76.0312 24.9927 76.0312 25.0601C76.0312 25.1274 76.0346 25.1941 76.0411 25.2597V32.6602C76.0346 32.7259 76.0312 32.7925 76.0312 32.8599C76.0312 32.9272 76.0346 32.9939 76.0411 33.0595V40.7603C76.0346 40.826 76.0312 40.8926 76.0312 40.96C76.0312 41.0273 76.0346 41.094 76.0411 41.1596V44.5699H72.3208C72.2551 44.5634 72.1885 44.5601 72.1211 44.5601C72.0537 44.5601 71.9871 44.5634 71.9214 44.5699H64.5307C64.465 44.5634 64.3984 44.5601 64.3311 44.5601C64.2637 44.5601 64.1971 44.5634 64.1314 44.5699H56.4209C56.3552 44.5634 56.2886 44.5601 56.2212 44.5601C56.1538 44.5601 56.0872 44.5634 56.0215 44.5699H52.6211V21.1499H56.5203ZM21.9987 25.0634C23.4248 26.4271 24.2677 28.3709 24.1066 30.7076L24.1062 30.7126L22.6704 50.7889C24.0061 50.4486 25.4483 50.4398 26.8486 50.8643C28.8933 51.4842 30.6758 52.9759 31.8348 55.325L31.8351 55.3256L51.9151 96.0555C51.9151 96.0555 51.9151 96.0556 51.9151 96.0556C52.3569 96.9516 52.8772 98.1579 52.6494 100.133C52.4409 101.94 51.6215 104.279 49.8627 107.628C48.3393 110.541 45.6243 113.581 42.9873 116.129C40.3182 118.709 37.5763 120.928 35.8465 122.201C34.9568 122.856 33.7049 122.665 33.0503 121.775C32.3957 120.885 32.5863 119.634 33.476 118.979C35.0762 117.802 37.6793 115.696 40.2077 113.253C42.7677 110.779 45.1022 108.1 46.319 105.773L46.3206 105.77C48.0013 102.57 48.5517 100.75 48.6757 99.6745C48.7804 98.7671 48.5957 98.3684 48.3275 97.8244L48.3274 97.8243L28.2477 57.0949C28.2476 57.0947 28.2475 57.0945 28.2474 57.0943C27.5316 55.6438 26.5779 54.962 25.6881 54.6922C24.7609 54.4111 23.7215 54.5234 22.7955 54.9871C21.8689 55.451 21.1432 56.2236 20.798 57.1459C20.4665 58.0314 20.4313 59.1969 21.1252 60.6056C21.1252 60.6058 21.1253 60.606 21.1254 60.6061L31.2852 81.2156C31.7736 82.2064 31.3663 83.4054 30.3756 83.8938C29.3849 84.3822 28.1858 83.975 27.6974 82.9843L17.5374 62.3743L17.5372 62.3738C16.3913 60.0478 16.3061 57.7359 17.0518 55.7437C17.3861 54.8505 17.8762 54.0513 18.476 53.3633L20.116 30.4324C20.1161 30.4315 20.1161 30.4307 20.1162 30.4299C20.1943 29.2879 19.8073 28.5024 19.2342 27.9544C18.6186 27.3657 17.694 26.9714 16.6659 26.8958C15.6389 26.8203 14.6665 27.0742 13.9648 27.5766C13.3093 28.0459 12.7813 28.803 12.6737 30.0341L12.6735 30.0364C12.2762 34.5215 11.1427 48.2613 10.5547 55.3887C10.3738 57.582 10.2445 59.1491 10.2042 59.6277C10.1968 59.7166 10.1893 59.8037 10.182 59.8893C10.0214 61.7745 9.92668 62.8868 10.7647 64.5848L10.7651 64.5856L25.9051 95.2956C26.1397 95.7714 26.1756 96.3208 26.0051 96.8231C25.8345 97.3254 25.4713 97.7393 24.9956 97.9739L15.8056 102.504C14.8148 102.992 13.6158 102.585 13.1274 101.594C12.639 100.603 13.0463 99.4044 14.037 98.9161L21.433 95.2704L7.17784 66.3551C7.17778 66.355 7.17772 66.3549 7.17765 66.3548C7.17758 66.3546 7.17751 66.3545 7.17744 66.3543C5.83829 63.6406 6.02153 61.5462 6.18757 59.6484C6.19802 59.5289 6.2084 59.4102 6.21833 59.2922C6.25783 58.8229 6.3856 57.2741 6.56484 55.1014C7.15172 47.9872 8.29042 34.1838 8.68909 29.6835C8.89706 27.3107 10.0151 25.4849 11.6363 24.3242C13.2117 23.1963 15.1474 22.7734 16.9592 22.9066C18.7698 23.0397 20.6146 23.7399 21.9987 25.0634ZM117.017 24.3335C118.638 25.4952 119.756 27.3222 119.963 29.696C120.362 34.1987 121.501 47.998 122.087 55.1111C122.267 57.284 122.395 58.833 122.434 59.3023C122.444 59.4208 122.454 59.5399 122.465 59.6598C122.631 61.5581 122.813 63.6412 121.476 66.3622L121.475 66.3644L107.219 95.2805L114.615 98.9262C115.606 99.4145 116.013 100.614 115.525 101.604C115.037 102.595 113.838 103.002 112.847 102.514L103.657 97.984C103.181 97.7494 102.818 97.3355 102.647 96.8332C102.477 96.3309 102.513 95.7815 102.747 95.3057L117.886 64.5979C118.725 62.8904 118.631 61.7844 118.471 59.9058C118.463 59.8182 118.456 59.7289 118.448 59.6378C118.408 59.1594 118.279 57.5934 118.098 55.4015C117.51 48.2749 116.376 34.5322 115.979 30.0466L115.979 30.0442C115.871 28.813 115.343 28.0549 114.687 27.5848C113.985 27.0816 113.012 26.8272 111.986 26.9022C110.958 26.9774 110.034 27.3713 109.419 27.9599C108.845 28.5082 108.458 29.2953 108.536 30.4417C108.536 30.442 108.536 30.4423 108.536 30.4427L110.178 53.3968C110.773 54.0818 111.258 54.8764 111.591 55.7638C112.336 57.756 112.251 60.0679 111.105 62.3939L111.105 62.3944L100.945 83.0044C100.457 83.9951 99.2575 84.4023 98.2668 83.9139C97.276 83.4256 96.8688 82.2265 97.3572 81.2358L107.517 60.6262C107.517 60.6261 107.517 60.6259 107.517 60.6258C108.211 59.217 108.176 58.0515 107.844 57.166C107.499 56.2437 106.773 55.4711 105.847 55.0072C104.921 54.5435 103.881 54.4313 102.954 54.7123C102.064 54.9821 101.111 55.6639 100.395 57.1144C100.395 57.1146 100.395 57.1148 100.395 57.115L80.3173 97.8396C80.3171 97.84 80.3169 97.8404 80.3167 97.8409C80.0477 98.3902 79.8647 98.7897 79.9702 99.6965C80.0953 100.772 80.6462 102.59 82.322 105.791C83.5443 108.12 85.8801 110.8 88.4387 113.273C90.9661 115.717 93.5667 117.822 95.1663 118.999C96.056 119.654 96.2466 120.906 95.592 121.795C94.9374 122.685 93.6855 122.876 92.7958 122.221C91.0655 120.948 88.326 118.728 85.6584 116.149C83.022 113.6 80.3079 110.561 78.7801 107.649L78.7793 107.648C77.0258 104.299 76.2069 101.963 75.997 100.159C75.7675 98.1861 76.2841 96.9806 76.7249 96.0805L76.7272 96.0757L96.8072 55.3457L96.8075 55.3451C97.9666 52.996 99.749 51.5043 101.794 50.8844C103.198 50.4587 104.644 50.4688 105.983 50.8118L104.546 30.7227L104.546 30.7175C104.385 28.3794 105.227 26.4343 106.653 25.0696C108.038 23.7451 109.883 23.0453 111.694 22.9129C113.506 22.7804 115.442 23.2048 117.017 24.3335ZM56.1411 26.6699C56.1411 25.5654 57.0365 24.6699 58.1411 24.6699H70.5111C71.6157 24.6699 72.5111 25.5654 72.5111 26.6699V39.0399C72.5111 40.1445 71.6157 41.0399 70.5111 41.0399H58.1411C57.0365 41.0399 56.1411 40.1445 56.1411 39.0399V26.6699ZM60.1411 28.6699V37.0399H68.5111V28.6699H60.1411Z" fill="#141414"/>
</svg>
