<svg width="128" height="129" viewBox="0 0 128 129" fill="none" xmlns="http://www.w3.org/2000/svg">
<path fill-rule="evenodd" clip-rule="evenodd" d="M73.7564 15.3516H31.7938C30.904 15.3485 30.0222 15.5208 29.1989 15.8588C28.3742 16.1973 27.6246 16.6954 26.9929 17.3244C26.3613 17.9535 25.86 18.701 25.518 19.5243C25.176 20.3475 25 21.2302 25 22.1216V22.1216V106.122C25 107.917 25.7133 109.639 26.9829 110.909C28.2525 112.178 29.9745 112.892 31.77 112.892H96.07C97.8655 112.892 99.5875 112.178 100.857 110.909C102.127 109.639 102.84 107.917 102.84 106.122L102.84 44.4315C102.84 44.3684 102.837 44.3052 102.831 44.2423L100.84 44.4316C102.831 44.2423 102.831 44.2422 102.831 44.242L102.83 44.2417L102.83 44.2409L102.83 44.239L102.83 44.2333L102.828 44.2152L102.822 44.1539C102.816 44.1024 102.808 44.0302 102.798 43.9421C102.777 43.767 102.747 43.5241 102.705 43.254C102.633 42.7833 102.495 41.9919 102.245 41.3879C101.852 40.4347 101.274 39.5684 100.545 38.8386L100.544 38.8367L79.3335 17.6467L79.3311 17.6442C77.8599 16.1797 75.8697 15.3556 73.7939 15.3516H73.79H73.7826L73.7695 15.3516L73.7564 15.3516ZM98.84 106.122L98.8395 46.4316H78.5395C76.744 46.4316 75.022 45.7183 73.7524 44.4487C72.4828 43.1791 71.7695 41.4571 71.7695 39.6616V19.3516H31.79H31.7816V19.3516C31.4169 19.3501 31.0554 19.4206 30.718 19.5591C30.3806 19.6976 30.0739 19.9014 29.8154 20.1588C29.557 20.4162 29.3519 20.722 29.212 21.0589C29.072 21.3957 29 21.7568 29 22.1216V22.1216V106.122C29 106.856 29.2918 107.561 29.8113 108.08C30.3308 108.6 31.0353 108.892 31.77 108.892H96.07C96.8047 108.892 97.5092 108.6 98.0287 108.08C98.5482 107.561 98.84 106.856 98.84 106.122ZM75.7695 39.6616V19.903C76.0359 20.0628 76.2841 20.2553 76.508 20.478L76.509 20.479L97.7146 41.6646L97.7152 41.6653C97.9447 41.8952 98.1437 42.1528 98.3078 42.4316H78.5395C77.8049 42.4316 77.1003 42.1397 76.5808 41.6202C76.0614 41.1008 75.7695 40.3962 75.7695 39.6616ZM41.7383 64.1222C41.7383 61.1509 44.147 58.7422 47.1183 58.7422C50.0896 58.7422 52.4983 61.1509 52.4983 64.1222C52.4983 67.0935 50.0896 69.5022 47.1183 69.5022C44.147 69.5022 41.7383 67.0935 41.7383 64.1222ZM47.1183 54.7422C41.9379 54.7422 37.7383 58.9418 37.7383 64.1222C37.7383 69.3026 41.9379 73.5022 47.1183 73.5022C52.2987 73.5022 56.4983 69.3026 56.4983 64.1222C56.4983 58.9418 52.2987 54.7422 47.1183 54.7422ZM78.1946 67.7605C77.8348 67.3288 77.31 67.0684 76.7486 67.0431C76.1872 67.0177 75.641 67.2297 75.2437 67.6272L56.9679 85.9122L50.9925 79.9368C50.6173 79.5616 50.1084 79.3509 49.5778 79.351C49.0472 79.3512 48.5384 79.5621 48.1633 79.9375L38.3233 89.7875C37.9487 90.1625 37.7383 90.6709 37.7383 91.201V98.581C37.7383 99.6856 38.6337 100.581 39.7383 100.581H88.9683C90.0728 100.581 90.9683 99.6856 90.9683 98.581V83.811C90.9683 83.3431 90.8042 82.89 90.5046 82.5305L78.1946 67.7605ZM58.3829 90.1549L76.5243 72.0042L86.9683 84.5352V96.581H41.7383V92.0288L49.579 84.1802L55.5541 90.1552C55.9292 90.5304 56.438 90.7411 56.9685 90.741C57.4991 90.741 58.0078 90.5301 58.3829 90.1549Z" fill="white"/>
</svg>
