<svg width="128" height="129" viewBox="0 0 128 129" fill="none" xmlns="http://www.w3.org/2000/svg">
<path fill-rule="evenodd" clip-rule="evenodd" d="M29.0321 26.959C27.1229 26.959 25.6113 28.5207 25.6755 30.2597C25.6764 30.2843 25.6769 30.3089 25.6769 30.3334C25.6769 32.1971 27.1926 33.7079 29.0321 33.7079C30.8715 33.7079 32.3872 32.1971 32.3872 30.3334C32.3872 28.4698 30.8715 26.959 29.0321 26.959ZM21.677 30.3702C21.5446 26.2041 25.0514 22.959 29.0321 22.959C33.0942 22.959 36.3872 26.2742 36.3872 30.3334C36.3872 32.0542 35.7955 33.6413 34.8042 34.8988L57.7127 58.98C58.7675 58.3926 59.9811 58.0575 61.2725 58.0575C62.9877 58.0575 64.5659 58.6486 65.8168 59.6372L81.4873 46.9299C81.0479 45.985 80.8025 44.9325 80.8025 43.8245C80.8025 39.7652 84.0956 36.45 88.1577 36.45C92.2199 36.45 95.5129 39.7652 95.5129 43.8245C95.5129 44.9656 95.2527 46.0479 94.7883 47.0143L116.022 66.6299C116.833 67.3794 116.883 68.6447 116.134 69.4561C115.384 70.2674 114.119 70.3176 113.308 69.568L92.1456 50.0186C90.9967 50.7649 89.6276 51.1989 88.1577 51.1989C86.6546 51.1989 85.2568 50.745 84.0922 49.9674L68.1723 62.8771C68.4668 63.6738 68.6277 64.5347 68.6277 65.432C68.6277 69.4912 65.3346 72.8064 61.2725 72.8064C57.2103 72.8064 53.9173 69.4912 53.9173 65.432C53.9173 64.1131 54.2649 62.8728 54.8736 61.7991L31.537 37.2677C30.7551 37.5525 29.9116 37.7079 29.0321 37.7079C24.9822 37.7079 21.6968 34.4127 21.677 30.3702ZM58.8971 63.0539C58.2929 63.6639 57.9173 64.5042 57.9173 65.432C57.9173 67.2956 59.433 68.8064 61.2725 68.8064C63.112 68.8064 64.6277 67.2956 64.6277 65.432C64.6277 64.7156 64.4037 64.0513 64.0235 63.505C64.0177 63.497 64.0121 63.489 64.0065 63.4809C63.3959 62.6196 62.3944 62.0575 61.2725 62.0575C60.3534 62.0575 59.5152 62.4347 58.9065 63.0445C58.9033 63.0476 58.9002 63.0508 58.8971 63.0539ZM85.645 46.0554C86.2619 46.7566 87.1624 47.1989 88.1577 47.1989C89.157 47.1989 90.0607 46.7531 90.6778 46.047C90.6837 46.0402 90.6896 46.0334 90.6956 46.0266C91.2039 45.4355 91.5129 44.666 91.5129 43.8245C91.5129 41.9608 89.9972 40.45 88.1577 40.45C86.3183 40.45 84.8025 41.9608 84.8025 43.8245C84.8025 44.6701 85.1146 45.4431 85.6275 46.0353C85.6333 46.042 85.6392 46.0487 85.645 46.0554ZM13.3365 22.9594C14.441 22.9595 15.3364 23.855 15.3364 24.9596L15.3317 102.959H114.665C115.769 102.959 116.665 103.855 116.665 104.959C116.665 106.064 115.769 106.959 114.665 106.959H13.3315C12.8011 106.959 12.2924 106.749 11.9173 106.374C11.5422 105.999 11.3315 105.49 11.3315 104.959L11.3364 24.9593C11.3364 23.8548 12.2319 22.9594 13.3365 22.9594Z" fill="#141414"/>
</svg>
