<svg width="128" height="129" viewBox="0 0 128 129" fill="none" xmlns="http://www.w3.org/2000/svg">
<path fill-rule="evenodd" clip-rule="evenodd" d="M21.7519 22.6893C22.0235 21.8716 22.7883 21.3198 23.6499 21.3198H90.5299C91.1776 21.3198 91.7852 21.6335 92.1603 22.1615C92.5354 22.6895 92.6317 23.3664 92.4185 23.978L80.3448 58.6199H115.13C116.234 58.6199 117.13 59.5154 117.13 60.6199V78.1199C117.13 79.2245 116.234 80.1199 115.13 80.1199H46.4798C45.9116 80.1199 45.3702 79.8783 44.9909 79.4553C44.6115 79.0323 44.43 78.4679 44.4916 77.9031L47.7598 47.9399H45.0298C43.9252 47.9399 43.0298 47.0445 43.0298 45.9399C43.0298 44.8354 43.9252 43.9399 45.0298 43.9399H49.9611C49.9785 43.9397 49.9961 43.9397 50.0136 43.9399H67.3756L70.7049 34.0397H29.6746L18.2926 57.1516C19.8445 57.8909 21.3142 58.2073 22.6809 58.2513C25.2384 58.3335 27.6651 57.468 29.8353 56.1931C32.0048 54.9185 33.8168 53.2936 35.1073 52.0087C35.5904 51.5277 35.9808 51.1148 36.3053 50.7716C36.4181 50.6523 36.523 50.5414 36.6209 50.439C36.7757 50.2774 36.9943 50.0501 37.1921 49.8879C37.2491 49.8412 37.3449 49.7658 37.4671 49.6905L37.4677 49.6901C37.5463 49.6417 37.8434 49.4585 38.2679 49.3968C38.5068 49.3621 38.8898 49.3506 39.3145 49.5214C39.7739 49.7061 40.1112 50.0357 40.3168 50.3984C40.646 50.9794 40.5807 51.5327 40.5674 51.6456L40.5667 51.6515C40.5317 51.9514 40.4213 52.2844 40.3701 52.439L40.3659 52.4517C40.289 52.6838 40.1863 52.9715 40.066 53.2968C39.8241 53.9506 39.4899 54.8139 39.0981 55.8056C38.3134 57.7922 37.2809 60.3362 36.2551 62.8404C35.2287 65.3462 34.2065 67.8186 33.441 69.664C33.0582 70.5868 32.7395 71.3532 32.5164 71.889L32.2575 72.5104L32.1893 72.6741L32.1717 72.7161L32.1673 72.7268L32.1661 72.7295L32.1659 72.7302C32.1658 72.7303 32.1658 72.7304 30.3201 71.9599L32.1658 72.7304L32.1635 72.7358C31.3916 74.5699 30.3775 75.9059 28.8895 76.6828C27.4869 77.4151 25.9391 77.4899 24.5501 77.4899L24.5169 77.4897L20.3069 77.4197C20.2553 77.4188 20.2039 77.4159 20.1525 77.4111C18.754 77.2794 17.4354 77.0678 16.3217 76.2968C15.2059 75.5243 14.5672 74.3761 13.9852 73.1922C13.902 73.0227 13.8431 72.8424 13.8104 72.6565L10.9172 56.2123C10.8854 56.0678 10.8696 55.9204 10.8701 55.7729C10.8698 55.5584 10.904 55.3444 10.9721 55.1394L21.7519 22.6893ZM15.7007 60.3162L17.6994 71.6766C18.1917 72.6443 18.4281 72.89 18.5985 73.008C18.7814 73.1346 19.152 73.2944 20.4524 73.4215L24.5665 73.4899C25.9066 73.489 26.5753 73.3787 27.0383 73.137C27.4174 72.939 27.918 72.5105 28.4756 71.1867L28.4759 71.186L28.4767 71.1841L28.4803 71.1755L28.4977 71.1339L28.5656 70.9711L28.8237 70.3516C29.0461 69.8172 29.3642 69.0524 29.7462 68.1314C30.5104 66.2891 31.5303 63.8227 32.5536 61.3243C32.9529 60.3496 33.3522 59.371 33.7369 58.4235C33.1461 58.8441 32.52 59.255 31.8615 59.6419C29.2814 61.1577 26.104 62.3635 22.5524 62.2492C20.3117 62.1772 18.0102 61.5823 15.7007 60.3162ZM15.9378 52.8793L26.636 31.1561C26.9726 30.4726 27.6683 30.0397 28.4302 30.0397H73.4875C74.1313 30.0397 74.7358 30.3496 75.1115 30.8724C75.4873 31.3952 75.5884 32.0669 75.3832 32.6772L71.5957 43.9399H74.5398C75.4905 43.9399 76.3098 44.6092 76.4996 45.5408L78.0368 53.0882L87.7149 25.3198H25.093L15.9378 52.8793ZM78.1911 62.6199L66.1825 71.5359C65.8377 71.7919 65.4197 71.9301 64.9902 71.9301H49.2402C49.2157 71.9301 49.1913 71.9297 49.1669 71.9288L48.7098 76.1199H113.13V62.6199H78.1911ZM49.6031 67.9301H64.329L75.3161 59.7725L72.9061 47.9399H51.7835L49.6031 67.9301ZM33.6027 81.2864C34.6594 81.6081 35.2552 82.7255 34.9335 83.7822L31.9993 93.4199H35.3974C36.3412 88.1554 40.9441 84.1602 46.4802 84.1602C46.6169 84.1602 46.753 84.1626 46.8884 84.1674C46.945 84.1626 47.0022 84.1602 47.0601 84.1602H91.22C96.756 84.1602 101.359 88.1553 102.303 93.4198H106.93V88.0298C106.93 86.9252 107.825 86.0298 108.93 86.0298C110.035 86.0298 110.93 86.9252 110.93 88.0298V95.4198C110.93 96.5244 110.035 97.4198 108.93 97.4198H102.303C101.359 102.685 96.7563 106.68 91.22 106.68C85.6837 106.68 81.0808 102.685 80.1371 97.4199H57.5632C56.6195 102.685 52.0165 106.68 46.4802 106.68C40.944 106.68 36.3409 102.685 35.3973 97.4199H30.7815L29.5935 101.322C29.2718 102.379 28.1544 102.975 27.0977 102.653C26.041 102.331 25.4452 101.214 25.7669 100.157L31.1069 82.6172C31.4286 81.5605 32.546 80.9647 33.6027 81.2864ZM53.738 95.2395C53.7327 95.2989 53.73 95.3591 53.73 95.4199C53.73 95.4808 53.7327 95.541 53.738 95.6004C53.6423 99.5267 50.4295 102.68 46.4802 102.68C42.4706 102.68 39.2202 99.4297 39.2202 95.4202C39.2202 91.4106 42.4706 88.1602 46.4802 88.1602C50.4294 88.1602 53.6421 91.3134 53.738 95.2395ZM57.5631 93.4199H80.1371C80.4923 91.4384 81.3659 89.6367 82.6126 88.1602H55.0875C56.3342 89.6367 57.2078 91.4384 57.5631 93.4199ZM91.22 88.1602C87.2103 88.1602 83.96 91.4104 83.96 95.4199C83.96 99.4296 87.2105 102.68 91.22 102.68C95.2296 102.68 98.48 99.4297 98.48 95.4202C98.48 91.4106 95.2296 88.1602 91.22 88.1602Z" fill="#141414"/>
</svg>
