<svg width="128" height="128" viewBox="0 0 128 128" fill="none" xmlns="http://www.w3.org/2000/svg">
<path fill-rule="evenodd" clip-rule="evenodd" d="M51.507 12C47.8791 12 44.5066 13.9366 42.8725 16.9985L42.8724 16.9987L14.1925 70.756C10.6264 77.4381 15.4692 85.5251 23.0445 85.5251H79.9977C87.573 85.5251 92.415 77.4456 88.8502 70.7569L88.8498 70.7562L60.1697 16.9987C60.1636 16.9873 60.1574 16.976 60.1511 16.9647C58.4614 13.9402 55.1511 12 51.507 12ZM46.4015 18.8818L46.4016 18.8816C47.2938 17.2099 49.2545 16 51.507 16C53.7368 16 55.6846 17.1851 56.6505 18.9001L85.3202 72.6383L85.3206 72.639C87.4672 76.668 84.5481 81.5251 79.9977 81.5251H23.0445C18.4937 81.5251 15.5752 76.6608 17.7214 72.6392L17.7215 72.639L46.4015 18.8818ZM83.8374 46.5675C82.8342 46.1051 81.6462 46.5434 81.1837 47.5465C80.7213 48.5496 81.1596 49.7376 82.1627 50.2001C90.4406 54.0162 96.1794 62.3848 96.1794 72.0897C96.1794 85.3941 85.394 96.1794 72.0896 96.1794C65.6563 96.1794 59.8156 93.6603 55.4933 89.5505C54.6928 88.7894 53.4269 88.8213 52.6657 89.6218C51.9046 90.4223 51.9366 91.6882 52.737 92.4493C57.7732 97.2377 64.59 100.179 72.0896 100.179C77.0894 100.179 81.7841 98.8732 85.851 96.5833L102.317 113.049L102.327 113.059C103.754 114.466 105.678 115.255 107.682 115.255C109.686 115.255 111.609 114.466 113.037 113.059L113.057 113.039C114.464 111.612 115.252 109.688 115.252 107.684C115.252 105.68 114.464 103.757 113.057 102.33L113.047 102.319L96.5816 85.8541C98.8725 81.7864 100.179 77.0907 100.179 72.0897C100.179 60.7668 93.48 51.0128 83.8374 46.5675ZM105.135 110.211L89.2526 94.328C91.1518 92.8601 92.8578 91.1543 94.3259 89.2553L110.208 105.138L110.213 105.142C110.879 105.821 111.252 106.733 111.252 107.684C111.252 108.633 110.881 109.543 110.218 110.221C109.541 110.883 108.63 111.255 107.682 111.255C106.731 111.255 105.818 110.881 105.14 110.215L105.135 110.211ZM49 72.9563H54.5268V65.0346H49V72.9563ZM49.6141 60.0605H53.9127L54.5882 29.2949H49L49.6141 60.0605Z" fill="#141414"/>
</svg>
