<svg width="128" height="129" viewBox="0 0 128 129" fill="none" xmlns="http://www.w3.org/2000/svg">
<path fill-rule="evenodd" clip-rule="evenodd" d="M36.874 18.9775C37.9786 18.9775 38.874 19.873 38.874 20.9775V27.3262H89.1318V20.9775C89.1318 19.873 90.0273 18.9775 91.1318 18.9775C92.2364 18.9775 93.1318 19.873 93.1318 20.9775V27.3262H112.003C113.107 27.3262 114.003 28.2216 114.003 29.3262V50.1943V100.283C114.003 103.027 112.913 105.659 110.972 107.6C109.032 109.54 106.4 110.631 103.655 110.631H24.3508C21.6063 110.631 18.9743 109.54 17.0337 107.6C15.0931 105.659 14.0029 103.027 14.0029 100.283V50.1943V29.3262C14.0029 28.2216 14.8984 27.3262 16.0029 27.3262H34.874V20.9775C34.874 19.873 35.7695 18.9775 36.874 18.9775ZM34.874 31.3262H18.0029V48.1943H110.003V31.3262H93.1318V37.6732C93.1318 38.7778 92.2364 39.6732 91.1318 39.6732C90.0273 39.6732 89.1318 38.7778 89.1318 37.6732V31.3262H38.874V37.6732C38.874 38.7778 37.9786 39.6732 36.874 39.6732C35.7695 39.6732 34.874 38.7778 34.874 37.6732V31.3262ZM110.003 52.1943H18.0029V100.283C18.0029 101.966 18.6717 103.581 19.8622 104.771C21.0526 105.962 22.6672 106.631 24.3508 106.631H103.655C105.339 106.631 106.953 105.962 108.144 104.771C109.334 103.581 110.003 101.966 110.003 100.283V52.1943ZM88.2081 61.3026C88.9891 62.0836 88.9891 63.35 88.2081 64.131L58.9907 93.3484C58.5993 93.7398 58.0631 93.9515 57.5099 93.9331C56.9567 93.9147 56.4358 93.6678 56.0713 93.2512L41.4626 76.5555C40.7353 75.7243 40.8195 74.4607 41.6508 73.7334C42.482 73.006 43.7456 73.0903 44.4729 73.9215L57.6739 89.0083L85.3796 61.3026C86.1607 60.5215 87.427 60.5215 88.2081 61.3026Z" fill="#141414"/>
</svg>
