<svg width="128" height="129" viewBox="0 0 128 129" fill="none" xmlns="http://www.w3.org/2000/svg">
<path fill-rule="evenodd" clip-rule="evenodd" d="M31.144 35.4782C22.8712 40.8181 18.0005 48.2518 18.0005 56.9775C18.0005 67.1364 24.6255 75.5895 35.5498 80.9617C36.2338 81.2981 36.6672 81.9941 36.6672 82.7564C36.6672 90.5343 33.0344 96.3502 29.5168 100.245C28.9131 100.914 28.3102 101.529 27.7263 102.09C29.5192 101.657 31.5702 101.071 33.7279 100.309C40.6998 97.8459 48.3733 93.6883 52.3772 87.2943C52.7913 86.6329 53.5522 86.2728 54.3261 86.3719C57.4433 86.7708 60.6795 86.9775 64.0005 86.9775C76.9594 86.9775 88.5613 83.8315 96.857 78.4769C105.13 73.137 110 65.7032 110 56.9775C110 48.2518 105.13 40.8181 96.857 35.4782C88.5613 30.1236 76.9594 26.9775 64.0005 26.9775C51.0415 26.9775 39.4397 30.1236 31.144 35.4782ZM22.8963 106.184C22.8965 106.184 22.8967 106.184 22.8969 106.184C22.8916 106.189 22.8909 106.189 22.8963 106.184ZM28.9747 32.1175C38.0516 26.2586 50.4498 22.9775 64.0005 22.9775C77.5512 22.9775 89.9493 26.2586 99.0262 32.1175C108.126 37.9911 114 46.5574 114 56.9775C114 67.3977 108.126 75.9639 99.0262 81.8376C89.9493 87.6965 77.5512 90.9775 64.0005 90.9775C60.9495 90.9775 57.9604 90.8113 55.0567 90.4877C50.1953 97.4111 41.9463 101.648 35.0603 104.081C31.4007 105.373 28.0207 106.194 25.5405 106.643C24.3054 106.866 23.2606 107.004 22.4963 107.057C22.1295 107.082 21.7513 107.094 21.425 107.067C21.2873 107.055 21.0025 107.026 20.6985 106.913C20.5534 106.859 20.2389 106.728 19.9414 106.434C19.5877 106.084 19.2657 105.496 19.3455 104.762C19.4081 104.185 19.6979 103.795 19.7723 103.695L19.7735 103.693C19.891 103.535 20.0144 103.408 20.099 103.325C20.2722 103.156 20.4812 102.981 20.6718 102.827C20.8139 102.711 21.052 102.524 21.3165 102.315C21.6099 102.084 21.9358 101.827 22.1994 101.615C23.4127 100.639 24.9865 99.2938 26.5482 97.5645C29.4772 94.321 32.2866 89.8165 32.6317 83.9657C21.4805 78.1196 14.0005 68.7529 14.0005 56.9775C14.0005 46.5574 19.875 37.9911 28.9747 32.1175ZM37.5843 51.0687C34.8103 51.0687 32.5615 53.3175 32.5615 56.0915C32.5615 58.8654 34.8103 61.1142 37.5843 61.1142C40.3582 61.1142 42.607 58.8654 42.607 56.0915C42.607 53.3175 40.3582 51.0687 37.5843 51.0687ZM28.5615 56.0915C28.5615 51.1083 32.6011 47.0687 37.5843 47.0687C42.5674 47.0687 46.607 51.1083 46.607 56.0915C46.607 61.0746 42.5674 65.1142 37.5843 65.1142C32.6011 65.1142 28.5615 61.0746 28.5615 56.0915ZM65.678 51.0687C62.904 51.0687 60.6553 53.3175 60.6553 56.0915C60.6553 58.8654 62.904 61.1142 65.678 61.1142C68.452 61.1142 70.7007 58.8654 70.7007 56.0915C70.7007 53.3175 68.452 51.0687 65.678 51.0687ZM56.6553 56.0915C56.6553 51.1083 60.6949 47.0687 65.678 47.0687C70.6611 47.0687 74.7007 51.1083 74.7007 56.0915C74.7007 61.0746 70.6611 65.1142 65.678 65.1142C60.6949 65.1142 56.6553 61.0746 56.6553 56.0915ZM93.7678 51.0687C90.9939 51.0687 88.7451 53.3175 88.7451 56.0915C88.7451 58.8654 90.9939 61.1142 93.7678 61.1142C96.5418 61.1142 98.7906 58.8654 98.7906 56.0915C98.7906 53.3175 96.5418 51.0687 93.7678 51.0687ZM84.7451 56.0915C84.7451 51.1083 88.7847 47.0687 93.7678 47.0687C98.751 47.0687 102.791 51.1083 102.791 56.0915C102.791 61.0746 98.751 65.1142 93.7678 65.1142C88.7847 65.1142 84.7451 61.0746 84.7451 56.0915Z" fill="#141414"/>
</svg>
